# xmcd
#
# Track frame offsets:
#	150
#	17592
#	48869
#	73216
#	89603
#	111703
#	141317
#	153761
#	170101
#	190968
#	216793
#	236438
#	252658
#	271841
#	289180
#	309942
#	334120
#
# Disc length: 4651 seconds
#
# Revision: 0
# Processed by: cddbd v1.4PL0 Copyright (c) Steve Scherf et al.
# Submitted via: AudioConverter v4.0 Copyright (c) Dennis Rebentrost
#
DISCID=03122911
DTITLE=Various Artist - Kinda Bluesy
DYEAR=1900
DGENRE=Blues
TTITLE0=Willing-Little Feat
TTITLE1=Althea-Grateful Dead
TTITLE2=Whipping Post-Allman Brothers
TTITLE3=Malted Milk- Eric Clapton
TTITLE4=Fat Man-Little Feat
TTITLE5=Makes no difference-The Band
TTITLE6=Mama Tried-Grateful Dead
TTITLE7=Railroad Blues-Grateful Dead
TTITLE8=Don't Do it-The Band
TTITLE9=Bertha-Grateful Dead
TTITLE10=time loves a hero-Little Feat
TTITLE11=I need a miracle-Grateful Dead
TTITLE12=Atlanta !- Little Feat
TTITLE13=When your down and out-Eric Clapton
TTITLE14=Layla-Eric Clapton
TTITLE15=Lonely Stranger here-Eric Clapton
TTITLE16=SF bay blues-Eric Clapton
EXTD=
EXTT0=
EXTT1=
EXTT2=
EXTT3=
EXTT4=
EXTT5=
EXTT6=
EXTT7=
EXTT8=
EXTT9=
EXTT10=
EXTT11=
EXTT12=
EXTT13=
EXTT14=
EXTT15=
EXTT16=
PLAYORDER=
